<svg width="24" height="32" viewBox="0 0 24 32" fill="none" xmlns="http://www.w3.org/2000/svg">
<g filter="url(#filter0_d_4_4405)">
<path d="M7.125 24C6.4 24 5.78125 23.7437 5.26875 23.2312C4.75625 22.7187 4.5 22.1 4.5 21.375C4.5 20.65 4.75625 20.0313 5.26875 19.5188C5.78125 19.0063 6.4 18.75 7.125 18.75C7.85 18.75 8.46875 19.0063 8.98125 19.5188C9.49375 20.0313 9.75 20.65 9.75 21.375C9.75 22.1 9.49375 22.7187 8.98125 23.2312C8.46875 23.7437 7.85 24 7.125 24ZM16.875 24C16.15 24 15.5312 23.7437 15.0187 23.2312C14.5062 22.7187 14.25 22.1 14.25 21.375C14.25 20.65 14.5062 20.0313 15.0187 19.5188C15.5312 19.0063 16.15 18.75 16.875 18.75C17.6 18.75 18.2187 19.0063 18.7312 19.5188C19.2437 20.0313 19.5 20.65 19.5 21.375C19.5 22.1 19.2437 22.7187 18.7312 23.2312C18.2187 23.7437 17.6 24 16.875 24ZM7.125 14.625C6.4 14.625 5.78125 14.3688 5.26875 13.8563C4.75625 13.3438 4.5 12.725 4.5 12C4.5 11.275 4.75625 10.6562 5.26875 10.1437C5.78125 9.63125 6.4 9.375 7.125 9.375C7.85 9.375 8.46875 9.63125 8.98125 10.1437C9.49375 10.6562 9.75 11.275 9.75 12C9.75 12.725 9.49375 13.3438 8.98125 13.8563C8.46875 14.3688 7.85 14.625 7.125 14.625ZM16.875 14.625C16.15 14.625 15.5312 14.3688 15.0187 13.8563C14.5062 13.3438 14.25 12.725 14.25 12C14.25 11.275 14.5062 10.6562 15.0187 10.1437C15.5312 9.63125 16.15 9.375 16.875 9.375C17.6 9.375 18.2187 9.63125 18.7312 10.1437C19.2437 10.6562 19.5 11.275 19.5 12C19.5 12.725 19.2437 13.3438 18.7312 13.8563C18.2187 14.3688 17.6 14.625 16.875 14.625ZM7.125 5.25C6.4 5.25 5.78125 4.99375 5.26875 4.48125C4.75625 3.96875 4.5 3.35 4.5 2.625C4.5 1.9 4.75625 1.28125 5.26875 0.76875C5.78125 0.25625 6.4 0 7.125 0C7.85 0 8.46875 0.25625 8.98125 0.76875C9.49375 1.28125 9.75 1.9 9.75 2.625C9.75 3.35 9.49375 3.96875 8.98125 4.48125C8.46875 4.99375 7.85 5.25 7.125 5.25ZM16.875 5.25C16.15 5.25 15.5312 4.99375 15.0187 4.48125C14.5062 3.96875 14.25 3.35 14.25 2.625C14.25 1.9 14.5062 1.28125 15.0187 0.76875C15.5312 0.25625 16.15 0 16.875 0C17.6 0 18.2187 0.25625 18.7312 0.76875C19.2437 1.28125 19.5 1.9 19.5 2.625C19.5 3.35 19.2437 3.96875 18.7312 4.48125C18.2187 4.99375 17.6 5.25 16.875 5.25Z" fill="#828282"/>
</g>
<defs>
<filter id="filter0_d_4_4405" x="-4" y="0" width="32" height="32" filterUnits="userSpaceOnUse" color-interpolation-filters="sRGB">
<feFlood flood-opacity="0" result="BackgroundImageFix"/>
<feColorMatrix in="SourceAlpha" type="matrix" values="0 0 0 0 0 0 0 0 0 0 0 0 0 0 0 0 0 0 127 0" result="hardAlpha"/>
<feOffset dy="4"/>
<feGaussianBlur stdDeviation="2"/>
<feComposite in2="hardAlpha" operator="out"/>
<feColorMatrix type="matrix" values="0 0 0 0 0 0 0 0 0 0 0 0 0 0 0 0 0 0 0.25 0"/>
<feBlend mode="normal" in2="BackgroundImageFix" result="effect1_dropShadow_4_4405"/>
<feBlend mode="normal" in="SourceGraphic" in2="effect1_dropShadow_4_4405" result="shape"/>
</filter>
</defs>
</svg>
